<svg width="120" height="120" viewBox="0 0 120 120" fill="none" xmlns="http://www.w3.org/2000/svg">
<rect width="120" height="120" fill="#E5E5E5"/>
<rect width="120" height="120" rx="18" fill="#0E2082"/>
<path d="M26.8346 53.8178C28.8599 46.6193 32.1321 40.3196 36.6513 34.9189C41.2167 29.5259 46.543 25.6611 52.6304 23.3242C58.7178 20.9874 65.1118 20.4812 71.8124 21.8055C78.2059 22.983 83.45 25.6259 87.5449 29.7343C91.6397 33.8427 94.2596 38.9582 95.4047 45.0809C96.5959 51.2115 96.2714 57.7494 94.4313 64.6947C92.3507 72.5005 88.9969 79.142 84.3698 84.6194C79.7888 90.1045 74.4316 94.0116 68.2981 96.3406C62.2186 98.6313 55.8054 99.1106 49.0587 97.7785C42.7113 96.6088 37.4863 93.9928 33.3837 89.9306C29.335 85.83 26.7111 80.7375 25.5121 74.6531C24.321 68.5226 24.6107 62.0499 26.3812 55.2351L26.8346 53.8178ZM41.3451 66.0219C40.7559 70.9023 41.3642 75.0132 43.1699 78.3545C45.0296 81.6575 48.0226 83.7296 52.1489 84.5706C57.7508 85.6614 62.8208 84.2907 67.359 80.4583C71.9434 76.6338 75.3755 70.9304 77.6555 63.3481L79.2181 56.6404C80.2175 50.7385 79.8264 45.9055 78.0448 42.1414C76.2632 38.3773 73.1518 36.0244 68.7105 35.0826C61.7332 33.7114 55.6185 36.2096 50.3664 42.5772C47.1965 46.4515 44.8165 51.1235 43.2262 56.5934C42.2015 60.404 41.5745 63.5469 41.3451 66.0219Z" fill="white"/>
</svg>
